# xmcd
#
# Track frame offsets:
#	150
#	16710
#	29377
#	43378
#	60235
#	80307
#	93230
#	111294
#	132007
#	150606
#	169358
#
# Disc length: 2510 seconds
#
# Revision: 1
# Processed by: cddbd v1.5.2PL0 Copyright (c) Steve Scherf et al.
# Submitted via: audiograbber 1.83.01
#
DISCID=7f09cc0b
DTITLE=Jamie O'Neal - Eternal
DYEAR=2014
DGENRE=Country
TTITLE0=Born To Run
TTITLE1=Don't Come Home A Drinkin' (With Lovin' On Your Mind)
TTITLE2=Golden Ring
TTITLE3=Help Me Make It Through The Night
TTITLE4=I've Done Enough Dyin' Today
TTITLE5=Just One Time
TTITLE6=Leavin' On Your Mind
TTITLE7=One Day I Walk
TTITLE8=Rock Me
TTITLE9=The Sweetest Thing
TTITLE10=Wide Awake
EXTD=
EXTT0=
EXTT1=
EXTT2=
EXTT3=
EXTT4=
EXTT5=
EXTT6=
EXTT7=
EXTT8=
EXTT9=
EXTT10=
PLAYORDER=
